<?xml version="1.0" encoding="UTF-8" standalone="no"?>
<!DOCTYPE svg PUBLIC "-//W3C//DTD SVG 1.1//EN" "http://www.w3.org/Graphics/SVG/1.1/DTD/svg11.dtd">
<svg width="100%" height="100%" viewBox="0 0 1194 313" version="1.1" xmlns="http://www.w3.org/2000/svg" xmlns:xlink="http://www.w3.org/1999/xlink" xml:space="preserve" xmlns:serif="http://www.serif.com/" style="fill-rule:evenodd;clip-rule:evenodd;stroke-linejoin:round;stroke-miterlimit:2;">
    <g transform="matrix(1,0,0,1,-2007.61,-479.488)">
        <g transform="matrix(4.16667,0,0,4.16667,-80,0)">
            <g transform="matrix(1,0,0,1,13.8726,10.1799)">
                <g transform="matrix(0.553577,0,0,0.64184,348.22,178.483)">
                    <path d="M319.824,2.148C307.259,2.148 296.582,1.514 287.793,0.244C279.004,-1.025 271.908,-3.63 266.504,-7.568C261.1,-11.507 257.161,-17.415 254.687,-25.293C252.214,-33.171 250.977,-43.685 250.977,-56.836C250.977,-69.596 252.214,-79.818 254.687,-87.5C257.161,-95.182 261.1,-100.977 266.504,-104.883C271.908,-108.789 279.004,-111.393 287.793,-112.695C296.582,-113.997 307.259,-114.648 319.824,-114.648C332.454,-114.648 343.148,-113.997 351.904,-112.695C360.661,-111.393 367.741,-108.789 373.145,-104.883C378.548,-100.977 382.487,-95.182 384.961,-87.5C387.435,-79.818 388.672,-69.596 388.672,-56.836C388.672,-43.685 387.435,-33.171 384.961,-25.293C382.487,-17.415 378.548,-11.507 373.145,-7.568C367.741,-3.63 360.661,-1.025 351.904,0.244C343.148,1.514 332.454,2.148 319.824,2.148Z" style="fill:rgb(51,255,204);fill-rule:nonzero;"/>
                </g>
                <g transform="matrix(0.908151,0,0,0.908151,525.27,162.008)">
                    <path d="M0,-43.226C9.522,-43.226 17.269,-35.48 17.269,-25.958C17.269,-22.802 16.403,-19.85 14.918,-17.302L14.918,-18.71L11.093,-18.71L11.093,-24.356L5.24,-24.356L5.24,-9.509C4.656,-9.322 4.061,-9.162 3.452,-9.038L3.452,-21.522C2.345,-22.629 1.724,-23.249 0.617,-24.356L-2.401,-24.356L-2.401,-8.877C-3,-8.961 -3.588,-9.076 -4.166,-9.22L-4.166,-28.633L-7.305,-28.633C-8.365,-27.574 -8.959,-26.98 -10.019,-25.92L-10.019,-22.236L-14.925,-22.236L-14.925,-17.314C-16.406,-19.859 -17.269,-22.807 -17.269,-25.958C-17.269,-35.48 -9.522,-43.226 0,-43.226M0,-48.983C-12.696,-48.983 -23.352,-38.65 -23.024,-25.958C-22.598,-9.437 0,5.757 0,5.757C0,5.757 23.024,-8.691 23.024,-25.958C23.024,-38.654 12.696,-48.983 0,-48.983" style="fill-rule:nonzero;"/>
                </g>
                <g transform="matrix(0.59648,0,0,0.59648,389.394,-150.44)">
                    <g transform="matrix(2.45273,0,0,2.45273,-11529.3,-3382.08)">
                        <path d="M4841.53,1586.79C4840.05,1586.79 4838.88,1586.62 4838.02,1586.3C4837.12,1585.95 4836.48,1585.37 4836.1,1584.56C4835.73,1583.79 4835.54,1582.73 4835.54,1581.39L4835.54,1575.28C4835.54,1575.12 4835.67,1574.98 4835.84,1574.98L4837.68,1574.98C4837.84,1574.98 4837.97,1575.12 4837.97,1575.28L4837.97,1581.39C4837.97,1582.09 4838.03,1582.66 4838.14,1583.11C4838.24,1583.52 4838.42,1583.83 4838.67,1584.05C4838.94,1584.28 4839.32,1584.43 4839.8,1584.53C4840.33,1584.62 4841.02,1584.67 4841.86,1584.67C4843.1,1584.67 4844.07,1584.57 4844.77,1584.37C4845.42,1584.18 4845.89,1583.9 4846.16,1583.5C4846.43,1583.09 4846.56,1582.56 4846.56,1581.91L4846.56,1575.28C4846.56,1575.12 4846.69,1574.98 4846.85,1574.98L4848.69,1574.98C4848.85,1574.98 4848.98,1575.12 4848.98,1575.28L4848.98,1586.29C4848.98,1586.45 4848.85,1586.58 4848.69,1586.58L4846.85,1586.58C4846.69,1586.58 4846.56,1586.45 4846.56,1586.29L4846.56,1585.58C4846.39,1585.74 4846.2,1585.88 4845.99,1586C4845.56,1586.27 4844.98,1586.47 4844.26,1586.6C4843.56,1586.73 4842.65,1586.79 4841.53,1586.79Z" style="fill:white;"/>
                    </g>
                    <g transform="matrix(2.45273,0,0,2.45273,-11529.3,-3382.08)">
                        <path d="M4851.07,1586.29L4851.07,1575.28C4851.07,1575.12 4851.2,1574.98 4851.36,1574.98L4853.2,1574.98C4853.36,1574.98 4853.49,1575.12 4853.49,1575.28L4853.49,1575.9C4853.53,1575.86 4853.57,1575.82 4853.6,1575.78C4853.84,1575.54 4854.14,1575.34 4854.52,1575.19C4854.88,1575.06 4855.36,1574.96 4855.96,1574.9C4856.54,1574.85 4857.31,1574.82 4858.25,1574.82C4858.41,1574.82 4858.55,1574.95 4858.55,1575.12L4858.55,1576.65C4858.55,1576.82 4858.41,1576.95 4858.25,1576.95C4857.01,1576.95 4856.04,1576.99 4855.36,1577.08C4854.73,1577.16 4854.28,1577.29 4854.01,1577.48C4853.77,1577.65 4853.63,1577.88 4853.58,1578.17C4853.52,1578.54 4853.49,1579 4853.49,1579.56L4853.49,1586.29C4853.49,1586.45 4853.36,1586.58 4853.2,1586.58L4851.36,1586.58C4851.2,1586.58 4851.07,1586.45 4851.07,1586.29Z" style="fill:white;"/>
                    </g>
                    <g transform="matrix(2.45273,0,0,2.45273,-11529.3,-3382.08)">
                        <path d="M4867.37,1586.79C4866.17,1586.79 4865.15,1586.7 4864.32,1586.52C4863.71,1586.38 4863.19,1586.13 4862.76,1585.77L4862.76,1586.29C4862.76,1586.45 4862.63,1586.58 4862.47,1586.58L4860.63,1586.58C4860.47,1586.58 4860.34,1586.45 4860.34,1586.29L4860.34,1571.61C4860.34,1571.45 4860.47,1571.31 4860.63,1571.31L4862.47,1571.31C4862.63,1571.31 4862.76,1571.45 4862.76,1571.61L4862.76,1575.79C4863.19,1575.43 4863.71,1575.18 4864.32,1575.05C4865.15,1574.87 4866.17,1574.77 4867.37,1574.77C4868.62,1574.77 4869.68,1574.84 4870.55,1574.97C4871.46,1575.1 4872.2,1575.38 4872.76,1575.79C4873.33,1576.2 4873.76,1576.82 4874.02,1577.63C4874.27,1578.41 4874.4,1579.44 4874.4,1580.72C4874.4,1582.05 4874.27,1583.11 4874.02,1583.9C4873.76,1584.74 4873.34,1585.36 4872.76,1585.78C4872.2,1586.19 4871.46,1586.47 4870.55,1586.6C4869.68,1586.73 4868.62,1586.79 4867.37,1586.79ZM4871.98,1580.72C4871.98,1579.83 4871.93,1579.12 4871.84,1578.59C4871.76,1578.11 4871.6,1577.76 4871.33,1577.52C4871.05,1577.27 4870.61,1577.12 4870.03,1577.03C4869.38,1576.94 4868.49,1576.89 4867.37,1576.89C4866.35,1576.89 4865.52,1576.94 4864.89,1577.03C4864.31,1577.12 4863.86,1577.28 4863.55,1577.53C4863.25,1577.77 4863.05,1578.13 4862.94,1578.6C4862.82,1579.13 4862.76,1579.84 4862.76,1580.72C4862.76,1581.64 4862.82,1582.37 4862.94,1582.92C4863.06,1583.42 4863.25,1583.79 4863.55,1584.04C4863.86,1584.29 4864.31,1584.45 4864.89,1584.54C4865.52,1584.63 4866.35,1584.67 4867.37,1584.67C4868.49,1584.67 4869.38,1584.63 4870.03,1584.54C4870.61,1584.45 4871.05,1584.3 4871.33,1584.05C4871.6,1583.8 4871.76,1583.43 4871.84,1582.94C4871.93,1582.39 4871.98,1581.65 4871.98,1580.72Z" style="fill:white;"/>
                    </g>
                    <g transform="matrix(2.45273,0,0,2.45273,-11529.3,-3382.08)">
                        <path d="M4882.06,1586.79C4880.72,1586.79 4879.62,1586.72 4878.75,1586.58C4877.81,1586.43 4877.12,1586.09 4876.66,1585.58C4876.21,1585.08 4875.96,1584.29 4875.96,1583.22C4875.96,1582.13 4876.19,1581.34 4876.62,1580.83C4877.05,1580.31 4877.73,1579.97 4878.66,1579.81C4879.52,1579.67 4880.65,1579.6 4882.06,1579.6C4883.19,1579.6 4884.13,1579.62 4884.9,1579.68C4885.52,1579.72 4886.09,1579.79 4886.61,1579.88C4886.59,1579.23 4886.53,1578.7 4886.45,1578.3C4886.36,1577.88 4886.21,1577.57 4885.98,1577.38C4885.73,1577.17 4885.37,1577.05 4884.9,1576.99C4884.37,1576.92 4883.67,1576.89 4882.79,1576.89C4881.78,1576.89 4880.99,1576.91 4880.42,1576.96C4879.89,1577 4879.5,1577.07 4879.26,1577.17C4879.09,1577.25 4878.97,1577.34 4878.93,1577.49C4878.87,1577.68 4878.84,1577.93 4878.84,1578.24C4878.84,1578.4 4878.71,1578.53 4878.55,1578.53L4876.72,1578.53C4876.55,1578.53 4876.42,1578.4 4876.42,1578.24C4876.42,1577.5 4876.53,1576.91 4876.73,1576.46C4876.94,1575.97 4877.31,1575.61 4877.83,1575.36C4878.31,1575.13 4878.96,1574.97 4879.79,1574.89C4880.58,1574.81 4881.58,1574.77 4882.79,1574.77C4884.1,1574.77 4885.16,1574.86 4885.96,1575.03C4886.82,1575.21 4887.47,1575.54 4887.91,1576.01C4888.36,1576.47 4888.66,1577.12 4888.82,1577.96C4888.97,1578.74 4889.04,1579.75 4889.04,1580.99L4889.04,1586.29C4889.04,1586.45 4888.91,1586.58 4888.74,1586.58L4886.91,1586.58C4886.75,1586.58 4886.62,1586.45 4886.62,1586.29L4886.62,1586.13C4886.47,1586.21 4886.3,1586.29 4886.11,1586.36C4885.71,1586.51 4885.18,1586.62 4884.52,1586.69C4883.88,1586.76 4883.06,1586.79 4882.06,1586.79ZM4882.06,1584.71C4883.14,1584.71 4884.01,1584.7 4884.65,1584.67C4885.26,1584.65 4885.72,1584.59 4886.02,1584.48C4886.25,1584.4 4886.41,1584.28 4886.48,1584.09C4886.58,1583.87 4886.62,1583.54 4886.62,1583.13L4886.62,1581.73L4882.05,1581.68L4882.05,1581.68C4881.2,1581.66 4880.52,1581.67 4880,1581.71C4879.52,1581.74 4879.15,1581.81 4878.9,1581.92C4878.7,1582 4878.57,1582.12 4878.51,1582.3C4878.42,1582.53 4878.38,1582.83 4878.38,1583.22C4878.38,1583.59 4878.42,1583.88 4878.5,1584.1C4878.57,1584.27 4878.7,1584.39 4878.89,1584.47C4879.14,1584.57 4879.51,1584.63 4880,1584.66C4880.52,1584.7 4881.2,1584.71 4882.06,1584.71Z" style="fill:white;"/>
                    </g>
                    <g transform="matrix(2.45273,0,0,2.45273,-11529.3,-3382.08)">
                        <path d="M4890.9,1586.29L4890.9,1575.28C4890.9,1575.12 4891.03,1574.98 4891.19,1574.98L4893.03,1574.98C4893.19,1574.98 4893.32,1575.12 4893.32,1575.28L4893.32,1575.99C4893.49,1575.83 4893.68,1575.69 4893.89,1575.56C4894.32,1575.3 4894.89,1575.1 4895.61,1574.97C4896.31,1574.84 4897.22,1574.77 4898.34,1574.77C4899.82,1574.77 4900.98,1574.92 4901.84,1575.21C4902.75,1575.52 4903.4,1576.07 4903.78,1576.86C4904.15,1577.61 4904.34,1578.67 4904.34,1580.05L4904.34,1586.29C4904.34,1586.45 4904.21,1586.58 4904.04,1586.58L4902.2,1586.58C4902.04,1586.58 4901.91,1586.45 4901.91,1586.29L4901.91,1580.05C4901.91,1579.33 4901.85,1578.75 4901.73,1578.31C4901.62,1577.92 4901.44,1577.62 4901.18,1577.42C4900.9,1577.21 4900.52,1577.08 4900.04,1577.01C4899.51,1576.93 4898.83,1576.89 4898.01,1576.89C4896.78,1576.89 4895.8,1576.99 4895.1,1577.19C4894.45,1577.38 4893.99,1577.66 4893.72,1578.06C4893.45,1578.47 4893.32,1579 4893.32,1579.65L4893.32,1586.29C4893.32,1586.45 4893.19,1586.58 4893.03,1586.58L4891.19,1586.58C4891.03,1586.58 4890.9,1586.45 4890.9,1586.29Z" style="fill:white;"/>
                    </g>
                    <g transform="matrix(0.24,0,0,0.24,502.803,508.656)">
                        <path d="M12.891,0L12.891,-112.5L31.641,-112.5L31.641,-98.535C34.44,-102.311 37.793,-105.469 41.699,-108.008C45.605,-110.547 50.602,-112.451 56.689,-113.721C62.777,-114.99 70.573,-115.625 80.078,-115.625C91.862,-115.625 101.465,-114.03 108.887,-110.84C116.309,-107.65 121.777,-102.148 125.293,-94.336C128.483,-99.284 132.324,-103.337 136.816,-106.494C141.309,-109.652 146.956,-111.963 153.76,-113.428C160.563,-114.893 168.945,-115.625 178.906,-115.625C190.755,-115.625 200.391,-114.014 207.812,-110.791C215.234,-107.568 220.687,-102.083 224.17,-94.336C227.653,-86.589 229.395,-75.977 229.395,-62.5L229.395,0L210.645,0L210.645,-62.5C210.645,-72.786 209.57,-80.615 207.422,-85.986C205.273,-91.357 201.709,-95.036 196.729,-97.021C191.748,-99.007 185.026,-100 176.562,-100C159.961,-100 148.128,-97.559 141.064,-92.676C134.001,-87.793 130.469,-79.818 130.469,-68.75L130.469,-68.848C130.534,-66.829 130.566,-64.714 130.566,-62.5L130.566,0L111.816,0L111.816,-62.5C111.816,-72.786 110.742,-80.615 108.594,-85.986C106.445,-91.357 102.881,-95.036 97.9,-97.021C92.92,-99.007 86.198,-100 77.734,-100C61.133,-100 49.3,-97.559 42.236,-92.676C35.173,-87.793 31.641,-79.818 31.641,-68.75L31.641,0L12.891,0Z" style="fill:white;fill-rule:nonzero;"/>
                    </g>
                    <g transform="matrix(0.24,0,0,0.24,502.803,508.656)">
                        <path d="M319.824,2.148C307.259,2.148 296.582,1.514 287.793,0.244C279.004,-1.025 271.908,-3.63 266.504,-7.568C261.1,-11.507 257.161,-17.415 254.687,-25.293C252.214,-33.171 250.977,-43.685 250.977,-56.836C250.977,-69.596 252.214,-79.818 254.687,-87.5C257.161,-95.182 261.1,-100.977 266.504,-104.883C271.908,-108.789 279.004,-111.393 287.793,-112.695C296.582,-113.997 307.259,-114.648 319.824,-114.648C332.454,-114.648 343.148,-113.997 351.904,-112.695C360.661,-111.393 367.741,-108.789 373.145,-104.883C378.548,-100.977 382.487,-95.182 384.961,-87.5C387.435,-79.818 388.672,-69.596 388.672,-56.836C388.672,-43.685 387.435,-33.171 384.961,-25.293C382.487,-17.415 378.548,-11.507 373.145,-7.568C367.741,-3.63 360.661,-1.025 351.904,0.244C343.148,1.514 332.454,2.148 319.824,2.148ZM369.922,-56.836C369.922,-66.146 369.45,-73.6 368.506,-79.199C367.562,-84.798 365.495,-89.014 362.305,-91.846C359.115,-94.678 354.15,-96.582 347.412,-97.559C340.674,-98.535 331.478,-99.023 319.824,-99.023C308.236,-99.023 299.056,-98.535 292.285,-97.559C285.514,-96.582 280.534,-94.678 277.344,-91.846C274.154,-89.014 272.087,-84.798 271.143,-79.199C270.199,-73.6 269.727,-66.146 269.727,-56.836C269.727,-47.201 270.199,-39.486 271.143,-33.691C272.087,-27.897 274.154,-23.551 277.344,-20.654C280.534,-17.757 285.514,-15.837 292.285,-14.893C299.056,-13.949 308.236,-13.477 319.824,-13.477C331.478,-13.477 340.674,-13.949 347.412,-14.893C354.15,-15.837 359.115,-17.757 362.305,-20.654C365.495,-23.551 367.562,-27.897 368.506,-33.691C369.45,-39.486 369.922,-47.201 369.922,-56.836Z" style="fill:white;fill-rule:nonzero;"/>
                    </g>
                    <g transform="matrix(0.24,0,0,0.24,502.803,508.656)">
                        <path d="M479.785,2.148C467.741,2.148 457.568,1.237 449.268,-0.586C440.967,-2.409 434.44,-6.51 429.687,-12.891L429.687,0L410.937,0L410.937,-150L429.687,-150L429.687,-99.707C434.44,-106.022 440.967,-110.091 449.268,-111.914C457.568,-113.737 467.741,-114.648 479.785,-114.648C492.415,-114.648 503.109,-113.997 511.865,-112.695C520.622,-111.393 527.702,-108.789 533.105,-104.883C538.509,-100.977 542.448,-95.182 544.922,-87.5C547.396,-79.818 548.633,-69.596 548.633,-56.836C548.633,-43.685 547.396,-33.171 544.922,-25.293C542.448,-17.415 538.509,-11.507 533.105,-7.568C527.702,-3.63 520.622,-1.025 511.865,0.244C503.109,1.514 492.415,2.148 479.785,2.148ZM529.883,-56.836C529.883,-66.146 529.411,-73.6 528.467,-79.199C527.523,-84.798 525.456,-89.014 522.266,-91.846C519.076,-94.678 514.111,-96.582 507.373,-97.559C500.635,-98.535 491.439,-99.023 479.785,-99.023C469.173,-99.023 460.579,-98.535 454.004,-97.559C447.428,-96.582 442.383,-94.678 438.867,-91.846C435.352,-89.014 432.943,-84.798 431.641,-79.199C430.339,-73.6 429.687,-66.146 429.687,-56.836C429.687,-47.201 430.339,-39.486 431.641,-33.691C432.943,-27.897 435.352,-23.551 438.867,-20.654C442.383,-17.757 447.428,-15.837 454.004,-14.893C460.579,-13.949 469.173,-13.477 479.785,-13.477C491.439,-13.477 500.635,-13.949 507.373,-14.893C514.111,-15.837 519.076,-17.757 522.266,-20.654C525.456,-23.551 527.523,-27.897 528.467,-33.691C529.411,-39.486 529.883,-47.201 529.883,-56.836Z" style="fill:white;fill-rule:nonzero;"/>
                    </g>
                    <g transform="matrix(0.24,0,0,0.24,502.803,508.656)">
                        <path d="M570.508,0L570.508,-106.25L589.258,-106.25L589.258,0L570.508,0ZM570.508,-131.25L570.508,-150L589.258,-150L589.258,-131.25L570.508,-131.25Z" style="fill:white;fill-rule:nonzero;"/>
                    </g>
                </g>
            </g>
        </g>
    </g>
</svg>
