<?xml version="1.0" encoding="UTF-8"?>
<svg id="Layer_2" data-name="Layer 2" xmlns="http://www.w3.org/2000/svg" viewBox="0 0 259.9 46.77">
  <defs>
    <style>
      .cls-1 {
        fill: #3fc;
      }

      .cls-1, .cls-2 {
        stroke-width: 0px;
      }

      .cls-2 {
        fill: #231f20;
      }
    </style>
  </defs>
  <g id="Layer_1-2" data-name="Layer 1">
    <g>
      <path class="cls-1" d="M19.68,0C8.83,0-.27,8.83,0,19.67c.36,14.12,19.67,27.1,19.67,27.1,0,0,19.67-12.34,19.67-27.1C39.35,8.83,30.53,0,19.68,0ZM19.68,4.92c8.14,0,14.75,6.62,14.75,14.75,0,2.7-.74,5.22-2.01,7.4v-1.2h-3.27v-4.82h-5v12.69c-.5.16-1.01.3-1.53.4v-10.25c-1.11-1.11-1.73-1.73-2.83-2.83h-2.17v13.23c-.51-.07-1.01-.17-1.51-.29v-16.59h-2.68c-.91.91-1.41,1.41-2.32,2.32v3.15h-4.19v4.21c-1.27-2.18-2-4.69-2-7.39,0-8.14,6.62-14.75,14.75-14.75Z"/>
      <g>
        <path class="cls-2" d="M60.21,36.8c-1.32-1.45-1.99-3.37-1.99-5.77v-12.53h5.21v12.03c0,2.9,1.35,4.34,4.05,4.34,1.18,0,2.3-.28,3.35-.85,1.05-.57,1.93-1.41,2.65-2.54v-12.98h5.21v19.85h-5.05v-2.69c-.94,1.13-2.05,1.96-3.35,2.5-1.3.54-2.66.81-4.09.81-2.67,0-4.67-.72-6-2.17Z"/>
        <path class="cls-2" d="M82.62,18.51h5.05v3.19c.8-1.08,1.94-1.88,3.41-2.4,1.47-.52,3.16-.79,5.07-.79v3.97c-2.01,0-3.76.31-5.23.93-1.48.62-2.5,1.59-3.08,2.91v12.03h-5.21v-19.85Z"/>
        <path class="cls-2" d="M106.98,38.29c-1.21-.45-2.39-1.2-3.51-2.25v2.32h-5.05V7.8h5.21v12.65c.94-.85,2.08-1.49,3.41-1.92,1.34-.43,2.76-.64,4.28-.64,2.01,0,3.81.45,5.4,1.34,1.58.9,2.83,2.14,3.72,3.74.9,1.6,1.34,3.43,1.34,5.5s-.45,3.93-1.34,5.52-2.14,2.81-3.72,3.68c-1.59.87-3.38,1.3-5.4,1.3-1.68,0-3.13-.23-4.34-.68ZM114.67,33.1c1.21-1.19,1.82-2.73,1.82-4.63s-.61-3.46-1.82-4.67-2.76-1.82-4.63-1.82c-1.49,0-2.82.41-3.99,1.22-1.17.81-1.98,1.9-2.42,3.25v4.01c.47,1.35,1.28,2.43,2.44,3.23s2.48,1.2,3.97,1.2c1.87,0,3.42-.59,4.63-1.78Z"/>
        <path class="cls-2" d="M125.3,37.09c-1.52-1.25-2.27-2.94-2.27-5.07s.72-3.93,2.15-5.17c1.43-1.24,3.45-1.86,6.04-1.86s4.67.51,6.49,1.53v-.54c0-1.41-.43-2.43-1.3-3.06s-2.27-.95-4.2-.95c-1.21,0-2.41.12-3.6.35-1.19.23-2.23.56-3.14.97v-4.09c.83-.39,1.94-.7,3.33-.95,1.39-.25,2.74-.37,4.03-.37,3.45,0,6,.74,7.65,2.21,1.66,1.48,2.48,3.52,2.48,6.14v12.12h-4.92v-1.94c-.86.83-1.83,1.46-2.92,1.9s-2.42.66-3.99.66c-2.37,0-4.31-.63-5.83-1.88ZM135.55,34.49c.94-.45,1.65-1.08,2.15-1.88v-2.19c-1.52-1.07-3.25-1.61-5.21-1.61-2.79,0-4.18,1.08-4.18,3.23,0,1.05.35,1.83,1.06,2.36.7.52,1.72.78,3.04.78,1.16,0,2.21-.23,3.14-.68Z"/>
        <path class="cls-2" d="M146.68,18.51h5.04v2.69c.94-1.13,2.05-1.96,3.35-2.5s2.66-.81,4.09-.81c2.67,0,4.67.72,6,2.17,1.32,1.45,1.99,3.37,1.99,5.77v12.53h-5.21v-12.03c0-2.9-1.35-4.34-4.05-4.34-1.19,0-2.3.28-3.35.85-1.05.56-1.93,1.41-2.65,2.54v12.98h-5.21v-19.85Z"/>
        <path class="cls-2" d="M171.28,18.51h3.06v3.1c1.9-2.48,4.26-3.72,7.07-3.72,1.65,0,2.94.29,3.87.87.92.58,1.59,1.45,2.01,2.61.88-1.19,1.98-2.06,3.29-2.63,1.31-.57,2.65-.85,4.03-.85,2.37,0,4.09.61,5.17,1.82,1.08,1.21,1.61,3,1.61,5.38v13.27h-3.14v-12.9c0-1.85-.32-3.14-.97-3.89-.65-.74-1.8-1.12-3.45-1.12-2.37,0-4.33,1.06-5.87,3.19.08.39.12,1.02.12,1.9v12.82h-3.1v-12.82c0-1.85-.3-3.16-.91-3.93-.61-.77-1.74-1.16-3.39-1.16-2.37,0-4.45,1.32-6.24,3.97v13.94h-3.14v-19.85Z"/>
        <path class="cls-2" d="M209.76,37.69c-1.67-.85-2.96-2.08-3.89-3.66-.92-1.59-1.39-3.44-1.39-5.56s.47-3.94,1.41-5.54c.94-1.6,2.24-2.84,3.91-3.72,1.67-.88,3.56-1.32,5.69-1.32s4.02.44,5.69,1.32c1.67.88,2.97,2.12,3.91,3.72.94,1.6,1.41,3.45,1.41,5.54s-.46,3.98-1.39,5.56c-.92,1.58-2.22,2.81-3.89,3.66-1.67.85-3.58,1.28-5.73,1.28s-4.06-.43-5.73-1.28ZM221.18,34.28c1.42-1.45,2.13-3.38,2.13-5.81s-.71-4.4-2.13-5.85c-1.42-1.45-3.32-2.17-5.69-2.17s-4.27.72-5.69,2.17c-1.42,1.45-2.13,3.4-2.13,5.85s.71,4.36,2.13,5.81c1.42,1.45,3.32,2.17,5.69,2.17s4.27-.72,5.69-2.17Z"/>
        <path class="cls-2" d="M236.6,37.96c-1.42-.68-2.65-1.7-3.7-3.08v3.47h-3.1V7.8h3.18v14.06c.85-1.29,2.05-2.28,3.6-2.96,1.54-.67,3.21-1.01,5-1.01,1.96,0,3.73.44,5.31,1.32,1.58.88,2.82,2.13,3.72,3.74.89,1.61,1.34,3.45,1.34,5.52s-.46,3.94-1.36,5.54c-.91,1.6-2.15,2.83-3.72,3.68-1.57.85-3.34,1.28-5.29,1.28s-3.56-.34-4.98-1.01ZM244.91,35.46c1.2-.66,2.14-1.6,2.83-2.81.69-1.21,1.03-2.6,1.03-4.18s-.35-2.96-1.03-4.18c-.69-1.21-1.63-2.16-2.83-2.83-1.2-.68-2.53-1.01-3.99-1.01-1.88,0-3.54.5-4.98,1.49-1.45.99-2.43,2.34-2.96,4.05v4.96c.55,1.71,1.54,3.05,2.96,4.03,1.42.98,3.08,1.47,4.98,1.47,1.46,0,2.79-.33,3.99-.99Z"/>
        <path class="cls-2" d="M256.47,13.63c-.39-.39-.58-.85-.58-1.41s.19-1.02.58-1.41c.39-.38.86-.58,1.41-.58s1.03.19,1.43.58c.4.39.6.86.6,1.41s-.2,1.02-.6,1.41c-.4.39-.88.58-1.43.58s-1.02-.19-1.41-.58ZM256.31,18.51h3.18v19.85h-3.18v-19.85Z"/>
      </g>
    </g>
  </g>
</svg>