<svg width="26.079156px" height="31px" viewBox="0 0 26.079156 31" version="1.1" xmlns="http://www.w3.org/2000/svg" xmlns:xlink="http://www.w3.org/1999/xlink">
    <g id="Page-1" stroke="none" stroke-width="1" fill="none" fill-rule="evenodd">
        <g id="Urban-Mobi-Desktop" transform="translate(-48, -64)" fill="#33FFCC" fill-rule="nonzero">
            <g id="logo_horizontal" transform="translate(48, 64)">
                <path d="M13.048142,0 C5.8565662,0 -0.175078015,5.85268334 0.00388285728,13.037631 C0.242497354,22.3966218 13.0415138,31 13.0415138,31 C13.0415138,31 26.0791504,22.8208253 26.0791504,13.037631 C26.085773,5.85268334 20.2397178,0 13.048142,0 Z M13.048142,3.26106479 C18.4434809,3.26106479 22.8247082,7.64892025 22.8247082,13.037631 C22.8247082,14.8272397 22.3342228,16.4975412 21.4924439,17.9424845 L21.4924439,17.1471028 L19.3250289,17.1471028 L19.3250289,13.9523199 L16.0109387,13.9523199 L16.0109387,22.3634809 C15.6795296,22.4695318 15.3414924,22.5623263 14.9968271,22.6286081 L14.9968271,15.8347231 C14.261099,15.0989951 13.8501518,14.6880479 13.121052,13.958948 L11.6827368,13.958948 L11.6827368,22.7280308 C11.3446996,22.6816335 11.0132906,22.6153517 10.6818816,22.5358136 L10.6818816,11.5396622 L8.90552921,11.5396622 C8.30236479,12.1428266 7.97095577,12.4742356 7.36779135,13.0774 L7.36779135,15.1652769 L4.59058373,15.1652769 L4.59058373,17.9557409 C3.74880482,16.5107975 3.26494764,14.8471242 3.26494764,13.0575155 C3.26494764,7.66217661 7.65280311,3.28094933 13.0415138,3.28094933 L13.048142,3.26106479 Z" id="Shape"></path>
            </g>
        </g>
    </g>
</svg>