<?xml version="1.0" encoding="UTF-8"?>
<svg id="Layer_2" data-name="Layer 2" xmlns="http://www.w3.org/2000/svg" viewBox="0 0 45.94 45.94">
  <defs>
    <style>
      .cls-1 {
        fill: #3fc;
      }

      .cls-1, .cls-2 {
        stroke-width: 0px;
      }

      .cls-2 {
        fill: #000;
      }
    </style>
  </defs>
  <g id="Layer_1-2" data-name="Layer 1">
    <rect class="cls-1" width="45.94" height="45.94"/>
    <g>
      <path class="cls-2" d="M22.97,39.98s-14.04-9.44-14.31-19.71c-.2-7.89,6.42-14.31,14.31-14.31s14.31,6.42,14.31,14.31c0,10.73-14.31,19.71-14.31,19.71ZM22.97,9.54c-5.92,0-10.73,4.81-10.73,10.73s4.81,10.73,10.73,10.73,10.73-4.81,10.73-10.73-4.81-10.73-10.73-10.73Z"/>
      <path class="cls-1" d="M22.98,9.54c-5.92,0-10.73,4.81-10.73,10.73s4.81,10.73,10.73,10.73,10.73-4.81,10.73-10.73-4.81-10.73-10.73-10.73Z"/>
      <g>
        <path class="cls-2" d="M22.28,21.26h-.8v10.85h3.64v-8.01l-2.83-2.83Z"/>
        <polygon class="cls-2" points="29.86 24.77 29.86 21.26 26.23 21.26 26.23 31.31 28.6 31.31 29.86 31.31 32.24 31.31 32.24 24.77 29.86 24.77"/>
        <path class="cls-2" d="M20.38,31.31v-12.71h-1.95l-1.69,1.69v2.29h-3.05v8.73"/>
      </g>
    </g>
  </g>
</svg>