<?xml version="1.0" encoding="UTF-8" standalone="no"?>
<!DOCTYPE svg PUBLIC "-//W3C//DTD SVG 1.1//EN" "http://www.w3.org/Graphics/SVG/1.1/DTD/svg11.dtd">
<svg width="100%" height="100%" viewBox="0 0 32 32" version="1.1" xmlns="http://www.w3.org/2000/svg" xmlns:xlink="http://www.w3.org/1999/xlink" xml:space="preserve" xmlns:serif="http://www.serif.com/" style="fill-rule:evenodd;clip-rule:evenodd;stroke-linejoin:round;stroke-miterlimit:2;">
    <g transform="matrix(1,0,0,1,-5189.03,-1473.64)">
        <g transform="matrix(4.16667,0,0,4.16667,3953.57,0)">
            <g id="Simbol-Negative" serif:id="Simbol Negative" transform="matrix(0.0900964,0,0,0.0900964,242.276,347.817)">
                <g transform="matrix(0.619063,0,0,0.717767,446.589,147.277)">
                    <path d="M319.824,2.148C307.259,2.148 296.582,1.514 287.793,0.244C279.004,-1.025 271.908,-3.63 266.504,-7.568C261.1,-11.507 257.161,-17.415 254.687,-25.293C252.214,-33.171 250.977,-43.685 250.977,-56.836C250.977,-69.596 252.214,-79.818 254.687,-87.5C257.161,-95.182 261.1,-100.977 266.504,-104.883C271.908,-108.789 279.004,-111.393 287.793,-112.695C296.582,-113.997 307.259,-114.648 319.824,-114.648C332.454,-114.648 343.148,-113.997 351.904,-112.695C360.661,-111.393 367.741,-108.789 373.145,-104.883C378.548,-100.977 382.487,-95.182 384.961,-87.5C387.435,-79.818 388.672,-69.596 388.672,-56.836C388.672,-43.685 387.435,-33.171 384.961,-25.293C382.487,-17.415 378.548,-11.507 373.145,-7.568C367.741,-3.63 360.661,-1.025 351.904,0.244C343.148,1.514 332.454,2.148 319.824,2.148Z" style="fill-rule:nonzero;"/>
                </g>
                <g transform="matrix(1.01558,0,0,1.01558,644.584,128.853)">
                    <path d="M0,-43.226C9.522,-43.226 17.269,-35.48 17.269,-25.958C17.269,-22.802 16.403,-19.85 14.918,-17.302L14.918,-18.71L11.093,-18.71L11.093,-24.356L5.24,-24.356L5.24,-9.509C4.656,-9.322 4.061,-9.162 3.452,-9.038L3.452,-21.522C2.345,-22.629 1.724,-23.249 0.617,-24.356L-2.401,-24.356L-2.401,-8.877C-3,-8.961 -3.588,-9.076 -4.166,-9.22L-4.166,-28.633L-7.305,-28.633C-8.365,-27.574 -8.959,-26.98 -10.019,-25.92L-10.019,-22.236L-14.925,-22.236L-14.925,-17.314C-16.406,-19.859 -17.269,-22.807 -17.269,-25.958C-17.269,-35.48 -9.522,-43.226 0,-43.226M0,-48.983C-12.696,-48.983 -23.352,-38.65 -23.024,-25.958C-22.598,-9.437 0,5.757 0,5.757C0,5.757 23.024,-8.691 23.024,-25.958C23.024,-38.654 12.696,-48.983 0,-48.983" style="fill:rgb(51,255,204);fill-rule:nonzero;"/>
                </g>
            </g>
        </g>
    </g>
</svg>
