<svg width="26" height="26" viewBox="0 0 26 26" fill="none" xmlns="http://www.w3.org/2000/svg">
<path d="M26 26H0V4.19617e-05H26V12.9987V26Z" fill="white"/>
<path d="M13.0484 9.41882H11.0732L12.0608 7.03847L13.0484 9.41882ZM14.3476 12.5061H16.5824L13.3706 5.22986H10.8135L7.60146 12.5061H9.78435L10.3873 11.0509H13.7342L14.3476 12.5061ZM24.0353 12.5061H26V5.22986H22.9439L21.3118 9.76175L19.6903 5.22986H16.5824V12.5061H18.5469V7.41275L20.418 12.5061H22.1642L24.0353 7.40221V12.5061ZM12.3733 19.1544V18.0212H16.479V16.3789H12.3733V15.246H16.583V13.562H10.3879V20.8382H16.583V19.1544H12.3733ZM24.0018 17.1824L26 19.3081V15.0744L24.0018 17.1824ZM23.3916 20.8382H26L22.5496 17.1794L26 13.562H23.4331L21.3024 15.8904L19.1921 13.562H16.5831L20.0133 17.2001L16.5831 20.8382H19.1194L21.2607 18.4891L23.3916 20.8382ZM26 26V21.8802H22.8633L21.2484 20.0945L19.6253 21.8802H9.28339V13.5577H5.94545L10.0858 4.18782H14.0788L15.5041 7.39779V4.18782H20.4466L21.3049 6.60675L22.1687 4.18782H26V4.19617e-05H0V26H26Z" fill="#1977C6"/>
</svg>
