<svg width="35" height="12" viewBox="0 0 35 12" fill="none" xmlns="http://www.w3.org/2000/svg">
<path d="M23.3877 0.23051C22.9334 0.23051 22.5673 0.596611 22.5673 1.05085V10.9288C22.5673 11.383 22.9334 11.7491 23.3877 11.7491C23.8419 11.7491 24.208 11.383 24.208 10.9288V1.05085C24.208 0.603391 23.8419 0.23051 23.3877 0.23051Z" fill="#75879C"/>
<path d="M10.0995 2.9017C9.6453 2.9017 9.2792 3.2678 9.2792 3.72204V10.9356C9.2792 11.3898 9.6453 11.7559 10.0995 11.7559C10.5538 11.7559 10.9199 11.3898 10.9199 10.9356V3.71526C10.9199 3.2678 10.5538 2.9017 10.0995 2.9017Z" fill="#75879C"/>
<path d="M11.1504 1.05085C11.1504 1.62712 10.6826 2.08135 10.0995 2.08135C9.52327 2.08135 9.0487 1.6339 9.0487 1.05085C9.0487 0.467796 9.51649 0 10.0995 0C10.6826 0.00677966 11.1504 0.474576 11.1504 1.05085Z" fill="#75879C"/>
<path d="M21.0894 5.51187C20.3029 3.7356 18.4453 2.48136 16.3233 2.69153C14.086 2.91526 12.3165 4.74577 12.1538 6.98983C11.9572 9.72204 14.1131 11.9932 16.8046 11.9932C18.0928 11.9932 19.0419 11.4915 19.6317 11.0441C20.0453 10.7322 20.0589 10.1153 19.6656 9.77627C19.3741 9.52542 18.9538 9.51187 18.6487 9.74237C18.2351 10.0542 17.5639 10.4068 16.6622 10.3661C15.4487 10.3051 14.4182 9.53221 13.9843 8.46102C13.9029 8.25085 14.0521 8.02034 14.2758 8.02034H19.9572C20.7436 8.02034 21.3402 7.38305 21.3402 6.64407C21.347 6.23051 21.2114 5.77627 21.0894 5.51187ZM16.8046 4.29153C18.086 4.29153 19.1843 5.08475 19.625 6.20339C19.7063 6.41356 19.5572 6.63729 19.3334 6.63729H14.2758C14.0521 6.63729 13.8961 6.41356 13.9843 6.20339C14.4317 5.08475 15.5233 4.29153 16.8046 4.29153Z" fill="#75879C"/>
<path d="M30.0927 10.3729C28.4114 10.3729 27.0555 9.01017 27.0555 7.33559C27.0555 6.56949 27.3402 5.87797 27.8012 5.34238L26.5673 4.28475C25.8622 5.10509 25.4351 6.16949 25.4351 7.33559C25.4351 9.91186 27.5233 12 30.0995 12C31.5233 12 32.8046 11.3559 33.6588 10.3458L32.4249 9.28814C31.8622 9.94576 31.0283 10.3729 30.0927 10.3729Z" fill="#75879C"/>
<path d="M30.0927 2.67119C28.6826 2.67119 27.4216 3.29492 26.5673 4.28475L27.8012 5.34238C28.3572 4.70509 29.1775 4.2983 30.0927 4.2983C31.7741 4.2983 33.13 5.66101 33.13 7.33559C33.13 8.08135 32.8588 8.7661 32.4182 9.29491L33.6521 10.3525C34.3368 9.53898 34.7571 8.48813 34.7571 7.34237C34.7571 4.75254 32.669 2.67119 30.0927 2.67119Z" fill="#75879C"/>
<path d="M7.77412 9.78305C7.48259 9.5322 7.05547 9.51186 6.75039 9.74915C6.24192 10.1424 5.59785 10.3729 4.90632 10.3729C3.19107 10.3729 1.80124 8.94915 1.86904 7.21356C1.93005 5.68135 3.09616 4.44068 4.62158 4.30508C5.42158 4.23051 6.16056 4.46779 6.74361 4.90847C7.04869 5.13898 7.47581 5.1322 7.76734 4.88135C8.16056 4.54915 8.147 3.93898 7.74022 3.62034C6.8792 2.96271 5.7809 2.59661 4.58768 2.67119C2.24192 2.82712 0.363955 4.73898 0.248701 7.09152C0.119887 9.76949 2.25548 11.9864 4.90632 11.9864C5.97751 11.9864 6.96056 11.6271 7.747 11.0169C8.15378 10.7186 8.16056 10.1152 7.77412 9.78305Z" fill="#75879C"/>
</svg>
